<svg xmlns="http://www.w3.org/2000/svg" viewBox="0 0 145.2 45"> <path d="M64.23,35.62a4.69,4.69,0,1,0,4.72,4.72A4.67,4.67,0,0,0,64.23,35.62Zm78-32.19A10.91,10.91,0,0,0,133.81.06a12,12,0,0,0-9.66,4.79A9,9,0,0,0,115.69.06a9.57,9.57,0,0,0-7.75,3.79L108,0.68H99.83v12.1A15.06,15.06,0,0,0,95.46,4.5a16.85,16.85,0,0,0-22.79,0,15.06,15.06,0,0,0-4.32,7.73V0.61h-17L47,6.37a12.76,12.76,0,0,0-1.19,2.15,14.86,14.86,0,0,0-1.19-2.14L40.6,0.6H22.88l0,3.53A11,11,0,0,0,13.84,0,13.13,13.13,0,0,0,4,4.41,16.39,16.39,0,0,0,0,15.46,16.6,16.6,0,0,0,4,26.61a13,13,0,0,0,9.78,4.46h0a11.4,11.4,0,0,0,9.13-4.2l0,3.59h8.21v0h7.48L44,23a17.1,17.1,0,0,0,1.51-2.68A19,19,0,0,0,47,23l5.28,7.4h16V19a15.07,15.07,0,0,0,4.32,7.73,16.85,16.85,0,0,0,22.79,0,15.06,15.06,0,0,0,4.37-8.28v12.1H108V14.24a7.08,7.08,0,0,1,1.52-4.92,5.48,5.48,0,0,1,4.26-1.6c1.86,0,2.92.49,3.6,1.33a6.52,6.52,0,0,1,1,4.11V30.51h8.19V14.24a7.12,7.12,0,0,1,1.51-4.93,5.39,5.39,0,0,1,4.2-1.6c1.86,0,2.94.49,3.64,1.33a6.4,6.4,0,0,1,1.05,4.1V30.51h8.19v-18A13.15,13.15,0,0,0,142.19,3.43ZM23,15.53c-0.05,5-2.75,8.12-7.41,8.15s-7.08-3.16-7.14-8.22,2.62-8,7.14-8S23,10.64,23,15.53h0Zm8.06,12.59V1L41,14.77Zm29-.5L50.51,14.24,60.1,1.16V27.62Zm24-3.74c-4.73,0-7.63-3.34-7.68-8.29s2.94-8.18,7.68-8.22,7.56,3.26,7.61,8.22S88.79,23.85,84.07,23.88Z" fill="#ffffff"/> </svg>